<svg width="25" height="25" viewBox="0 0 25 25" fill="none" xmlns="http://www.w3.org/2000/svg">
    <path d="M7.19303 14.8648C6.81526 14.8648 6.49837 14.7496 6.24237 14.5192C5.98726 14.2896 5.8597 14.0048 5.8597 13.6648C5.8597 13.3248 5.98726 13.0396 6.24237 12.8092C6.49837 12.5796 6.81526 12.4648 7.19303 12.4648C7.57081 12.4648 7.8877 12.5796 8.1437 12.8092C8.39881 13.0396 8.52637 13.3248 8.52637 13.6648C8.52637 14.0048 8.39881 14.2896 8.1437 14.5192C7.8877 14.7496 7.57081 14.8648 7.19303 14.8648ZM12.5264 14.8648C12.1486 14.8648 11.8321 14.7496 11.577 14.5192C11.321 14.2896 11.193 14.0048 11.193 13.6648C11.193 13.3248 11.321 13.0396 11.577 12.8092C11.8321 12.5796 12.1486 12.4648 12.5264 12.4648C12.9041 12.4648 13.221 12.5796 13.477 12.8092C13.7321 13.0396 13.8597 13.3248 13.8597 13.6648C13.8597 14.0048 13.7321 14.2896 13.477 14.5192C13.221 14.7496 12.9041 14.8648 12.5264 14.8648ZM17.8597 14.8648C17.4819 14.8648 17.1655 14.7496 16.9104 14.5192C16.6544 14.2896 16.5264 14.0048 16.5264 13.6648C16.5264 13.3248 16.6544 13.0396 16.9104 12.8092C17.1655 12.5796 17.4819 12.4648 17.8597 12.4648C18.2375 12.4648 18.5539 12.5796 18.809 12.8092C19.065 13.0396 19.193 13.3248 19.193 13.6648C19.193 14.0048 19.065 14.2896 18.809 14.5192C18.5539 14.7496 18.2375 14.8648 17.8597 14.8648ZM0.526367 24.4648V2.86484H4.52637V0.464844H7.19303V2.86484H17.8597V0.464844H20.5264V2.86484H24.5264V24.4648H0.526367ZM3.19303 22.0648H21.8597V10.0648H3.19303V22.0648ZM3.19303 7.66484H21.8597V5.26484H3.19303V7.66484Z" fill="black" fill-opacity="0.6"/>
    </svg>
    