<svg width="20" height="20" viewBox="0 0 20 20" fill="white" xmlns="http://www.w3.org/2000/svg">
<g clip-path="url(#clip0_139_5569)">
<path fill-rule="evenodd" clip-rule="evenodd" d="M5.2444 1.91107C5.56984 1.58563 6.09748 1.58563 6.42291 1.91107L9.75625 5.2444C10.0817 5.56984 10.0817 6.09748 9.75625 6.42291C9.43081 6.74835 8.90317 6.74835 8.57774 6.42291L6.66699 4.51217V15.8337C6.66699 16.2939 6.2939 16.667 5.83366 16.667C5.37342 16.667 5.00033 16.2939 5.00033 15.8337V4.51217L3.08958 6.42291C2.76414 6.74835 2.23651 6.74835 1.91107 6.42291C1.58563 6.09748 1.58563 5.56984 1.91107 5.2444L5.2444 1.91107ZM14.167 3.33366C14.6272 3.33366 15.0003 3.70675 15.0003 4.16699L15.0003 15.4885L16.9111 13.5777C17.2365 13.2523 17.7641 13.2523 18.0896 13.5777C18.415 13.9032 18.415 14.4308 18.0896 14.7562L14.7562 18.0896C14.6 18.2459 14.388 18.3337 14.167 18.3337C13.946 18.3337 13.734 18.2459 13.5777 18.0896L10.2444 14.7562C9.91897 14.4308 9.91897 13.9032 10.2444 13.5777C10.5698 13.2523 11.0975 13.2523 11.4229 13.5777L13.3337 15.4885L13.3337 4.16699C13.3337 3.70675 13.7068 3.33366 14.167 3.33366Z" fill="#7126B5"/>
</g>
<defs>
<clipPath id="clip0_139_5569">
<rect width="16.6667" height="16.6667" fill="white" transform="translate(1.66699 1.66699)"/>
</clipPath>
</defs>
</svg>
