<?xml version="1.0" encoding="utf-8"?>
<!DOCTYPE svg PUBLIC "-//W3C//DTD SVG 1.0//EN" "http://www.w3.org/TR/2001/REC-SVG-20010904/DTD/svg10.dtd">
<svg version="1.0" xmlns="http://www.w3.org/2000/svg" width="1000px" height="1000px" viewBox="0 0 500 499" preserveAspectRatio="xMidYMid meet">
 <g fill="#ffffff">
  <path d="M0 249.5 l0 -249.5 250 0 250 0 0 249.5 0 249.5 -250 0 -250 0 0 -249.5z m274 123.4 c13.9 -2.4 23.1 -5.5 36.5 -12 24.7 -12.1 44.5 -32.8 57.4 -60 4.8 -10 9.3 -23.8 10.6 -32.6 0.6 -3.7 0.4 -4.3 -1.2 -4.3 -3.4 0 -4.3 1.6 -5.8 10.5 -7.5 42.8 -41.2 79.2 -83.2 90.1 -13.4 3.4 -41.1 4.4 -55.2 2 -15.9 -2.8 -31.5 -9 -44.6 -17.9 -7.9 -5.4 -21.5 -18.6 -27.3 -26.4 -3.4 -4.6 -5.2 -6.3 -6.9 -6.3 -2.1 0 -2.3 0.2 -1.2 2.3 1.7 3.1 6.5 9.3 11.8 15.2 27.8 30.5 70.9 46.1 109.1 39.4z m-136.7 -69.5 c24.9 -3.1 86.7 -14.1 86.7 -15.4 0 -0.4 -3.1 -1 -6.9 -1.4 -14.3 -1.4 -31.1 -6.6 -40.5 -12.4 -2.2 -1.4 -11.7 -8.2 -21 -15.2 -9.4 -7 -20.9 -15.2 -25.6 -18.3 -8.1 -5.2 -20.4 -11.7 -22.2 -11.7 -0.5 0 3.3 4.6 8.5 10.3 18 19.7 22.7 27.6 22.7 38.1 0 7.6 -0.8 8.6 -10.5 12 -10.8 4 -14.2 8.9 -9.5 13.6 2.4 2.4 2.9 2.4 18.3 0.4z m147.9 -33.5 c54.9 -9.2 109.3 -24.9 117.2 -33.8 1.9 -2.1 1.9 -2.1 -0.5 -4.7 -4.9 -5.2 -8.2 -6.5 -14.6 -5.7 -4.8 0.6 -5.3 0.8 -2.8 1.3 2.9 0.5 3 0.8 3 5.5 0 4.8 -0.1 5 -3 5.3 -1.6 0.2 -3.4 0.7 -4 1.2 -0.5 0.4 -3.2 1.1 -6 1.5 -2.7 0.4 -5.4 1.1 -6 1.5 -0.5 0.4 -2.1 1 -3.5 1.3 -1.4 0.3 -5.4 1.3 -9 2.2 -3.6 0.9 -9 2.2 -12 2.9 -3 0.7 -6.2 1.5 -7 1.8 -6.6 2.3 -15.3 4.5 -22.1 5.5 -4.6 0.6 -6.1 -1.2 -5.7 -6.9 0.3 -4 0.5 -4.3 3.3 -4.6 1.7 -0.2 3.5 -0.8 4 -1.2 0.6 -0.5 3.4 -1.2 6.3 -1.6 2.9 -0.4 5.5 -1 5.7 -1.5 0.3 -0.4 3 -1.1 6 -1.4 3.1 -0.4 5.8 -1.1 6 -1.6 0.3 -0.4 3.2 -1.1 6.5 -1.5 3.3 -0.4 6 -1 6 -1.4 0 -0.5 2.7 -1.1 6 -1.5 3.3 -0.4 6 -1.1 6 -1.6 0 -0.5 1.3 -0.9 2.9 -0.9 1.7 0 3.3 -0.4 3.6 -1 0.4 -0.6 -1.2 -1 -3.9 -1 l-4.6 0 0 -5.1 c0 -3.7 0.5 -5.5 1.7 -6.4 7.1 -5.2 -25 2 -50.1 11.3 l-8 2.9 0.3 5.2 0.2 5.1 -3.4 0 c-4.9 0 -15.6 -8 -59.5 -44.5 -10.7 -8.8 -20.1 -16.4 -21 -16.9 -0.8 -0.5 3.9 5.9 10.6 14.1 15.2 18.7 15.5 19.9 5.7 24.3 -3.6 1.6 -6.5 3.4 -6.5 3.9 0 2.2 2.2 2 8.1 -0.9 10.5 -5.1 10.9 -4.9 22.4 9.2 24.4 29.9 23.5 28.7 23.5 32.4 0 3.3 -0.1 3.4 -3.7 3.4 -3.4 0 -4.7 -0.9 -14.5 -10.7 l-10.7 -10.6 -8.3 2.3 c-4.6 1.2 -18.6 5.1 -31.1 8.6 -12.6 3.4 -23.1 6.4 -23.3 6.7 -1.2 1.2 18.2 6.9 33.1 9.6 21.2 3.9 21.6 3.9 56.7 -2z m-143.2 -50.9 c2.6 -9.9 11.3 -28.9 16.7 -36.4 6.8 -9.4 14.6 -17.7 22.8 -24.2 9.9 -8 30.7 -18.5 42.2 -21.4 23.2 -5.7 51.4 -4.7 72.3 2.6 26.4 9.2 48.7 27.9 63 52.8 3.9 6.8 5.1 8.2 7.5 8.4 l2.8 0.4 -3.3 -5.9 c-6.9 -12.3 -12.8 -20.2 -23 -30.4 -15.1 -15.3 -29.4 -24.3 -50 -31.2 -25 -8.5 -47.5 -8.7 -73 -0.7 -9.6 3.1 -29.5 13.2 -37.5 19.2 -21.1 15.8 -38 39.7 -45.5 64.7 l-2.3 7.4 2.4 1.8 c1.3 1 2.4 1.7 2.5 1.6 0.1 -0.1 1.2 -4 2.4 -8.7z"/>
 </g>
 <g fill="#289ed7">
  <path d="M101.3 230 c-3.5 -3.2 -6.3 -6 -6.3 -6.4 0 -0.8 5.8 -0.8 8.8 0 1.2 0.4 2.2 1.4 2.2 2.3 0 0.9 0.5 2.2 1.1 2.8 0.6 0.6 0.9 2.4 0.7 4.1 l-0.3 3 -6.2 -5.8z"/>
  <path d="M135.3 229.9 c-2.4 -1.7 -4.3 -3.6 -4.3 -4.3 0 -3.9 5.8 -20.4 10.5 -30.1 10.2 -21 24.2 -37.3 43 -49.8 4.9 -3.3 5.5 -3.3 5.5 -0.3 0 1.7 -1 3.1 -3.4 4.5 -1.9 1.2 -4 2.9 -4.7 3.8 -0.9 1.1 -0.3 0.9 1.5 -0.5 1.6 -1.2 3.9 -2.2 5.2 -2.2 1.5 0 2.4 -0.6 2.4 -1.5 0 -1.1 1.2 -1.5 4.5 -1.5 3.1 0 4.5 0.4 4.5 1.3 0 0.8 -3.7 3.8 -8.2 6.7 -9.4 6.1 -22.2 18.5 -29.1 28.3 -7.2 10.1 -15 27.1 -17.8 38.7 -2.7 11.3 -3.1 11.6 -9.6 6.9z m40.3 -68.9 c1.5 0 2.3 -0.7 2.7 -2.6 l0.4 -2.5 -2.1 2 c-1.2 1.2 -3 2.1 -3.9 2.1 -0.9 0 -1.7 0.8 -1.7 1.7 0 1.3 0.3 1.4 1.2 0.5 0.7 -0.7 2.2 -1.2 3.4 -1.2z"/>
 </g>
 <g fill="#258ecb">
  <path d="M119.3 307.9 c-2 -0.6 -3.9 -2.1 -4.8 -3.9 -2 -3.8 -1.9 -4 1 -4 1.6 0 2.5 0.6 2.5 1.5 0 0.8 0.9 1.5 1.9 1.5 1.1 0 2.2 0.6 2.5 1.3 0.5 1 0.7 1 1.2 0 0.3 -0.8 2.4 -1.3 5 -1.3 3.7 0 4.4 0.3 4.4 1.9 0 1.1 -0.3 2.2 -0.7 2.4 -1.9 1.1 -10.1 1.5 -13 0.6z"/>
  <path d="M125.8 256.8 c-1.8 -2.4 -7.7 -9.2 -13.2 -15.3 -5.4 -6 -10.6 -12.1 -11.5 -13.5 -0.8 -1.4 -2 -2.8 -2.6 -3.2 -1.6 -1.2 5.8 -0.9 9.6 0.3 7.9 2.5 24.9 11.5 24.9 13.1 0 0.4 -1.5 0.8 -3.4 0.8 l-3.5 0 0.6 5.8 c0.3 3.1 1 6 1.6 6.3 1 0.7 2.3 9.9 1.4 9.9 -0.3 0 -2 -1.9 -3.9 -4.2z"/>
  <path d="M169 175.1 c0 -0.6 -0.7 -1.1 -1.5 -1.1 -1.3 0 -1.5 -1.1 -1.1 -6.5 0.3 -4.6 0.2 -6.3 -0.6 -5.9 -0.7 0.4 -0.8 0.2 -0.4 -0.5 0.4 -0.6 1.2 -0.9 1.7 -0.6 0.5 0.4 0.9 -0.1 0.9 -1 0 -0.8 0.8 -1.8 1.8 -2.2 0.9 -0.3 4 -2.5 6.7 -4.8 11.9 -9.8 25.4 -17.5 38.5 -21.8 4.3 -1.5 4.5 -1.4 4.8 0.5 0.2 1.2 -0.2 2.5 -1 3 -1.3 0.9 4.4 0.4 15.7 -1.3 3.3 -0.5 7.7 -0.9 9.8 -0.9 3.2 0 3.7 0.3 3.7 2.4 0 2.1 -0.5 2.4 -6.4 2.9 -10.3 1 -22.3 4.5 -33.3 9.7 -6 2.8 -11 4.6 -12.2 4.3 -1.4 -0.3 -1.9 0 -1.8 1.3 0.2 1.4 -0.5 1.9 -2.8 1.9 -4 0 -9.9 4.6 -10 7.7 0 1.9 -0.5 2.3 -2.6 2 -1.9 -0.2 -3.6 0.8 -6.3 3.5 -2 2.1 -3.2 3.9 -2.6 4.1 1.3 0.5 1.3 2.9 0 3.7 -0.5 0.3 -1 0.1 -1 -0.4z"/>
 </g>
 <g fill="#207dbd">
  <path d="M120.8 308.2 c-1 -0.2 -1.8 -0.7 -1.8 -1.2 0 -0.5 -0.6 -0.7 -1.4 -0.4 -2.2 0.8 -5 -5.8 -4.2 -9.9 0.9 -4.6 4.1 -7.3 12.1 -10.3 3.8 -1.3 7.7 -3.2 8.7 -4.1 3.6 -3.2 1.8 -10.9 -4.8 -20.7 -1.9 -2.8 -3.4 -5.6 -3.4 -6.3 0 -0.7 -0.6 -1.3 -1.4 -1.3 -0.8 0 -1.8 -0.5 -2.2 -1.2 -0.4 -0.7 -0.3 -0.8 0.4 -0.4 1.7 1 1.5 -0.6 -0.4 -3.2 -1.4 -2 -1.4 -2.2 0.1 -2.2 1.1 0 1.4 -0.7 1.1 -2.2 -0.3 -1.3 -0.8 -4.5 -1.1 -7.1 l-0.6 -4.8 2.8 0.7 c1.5 0.4 4.6 1.8 6.8 3.2 7.7 4.7 26.5 18.5 26.5 19.4 0 0.5 -1.7 0.8 -3.7 0.6 -3.5 -0.3 -3.9 -0.1 -5 3.2 -0.7 1.9 -1.3 5.9 -1.3 8.7 0 5.9 -2.5 13.3 -4.6 13.3 -1 0 -1.2 1.2 -0.8 4.8 0.3 2.6 0.1 6.6 -0.4 9 -1.1 4.8 -1.4 4.6 8.6 4.2 5.1 -0.2 5.3 -0.1 5 2.2 -0.3 2.2 -1 2.4 -12.8 3.9 -6.9 0.8 -12.6 1.2 -12.8 0.7 -0.6 -1.3 -2.9 -0.9 -3.5 0.6 -0.6 1.4 -2.1 1.6 -5.9 0.8z"/>
  <path d="M211 139.5 c1.3 -3.4 1.3 -3.2 -1.2 -3.8 -1.7 -0.5 -1.9 -0.9 -0.9 -2 0.6 -0.8 2.4 -1.7 3.9 -2 1.5 -0.3 5.2 -1.5 8.2 -2.6 9.3 -3.3 23.3 -5.2 36.5 -4.9 10.5 0.3 12 0.5 12.3 2.1 0.3 1.4 -0.4 1.7 -3.7 1.7 -3.7 0 -4.1 0.2 -4.1 2.5 0 1.4 0.5 2.5 1 2.5 0.6 0 1 -0.4 1 -1 0 -1.2 7.7 -1.3 8.4 -0.1 0.3 0.5 3.1 1.2 6.1 1.6 5.2 0.6 5.5 0.8 5.5 3.4 l0 2.8 -7.2 -1.4 c-4 -0.8 -12.8 -1.6 -19.5 -1.6 -6.8 -0.1 -12.3 -0.5 -12.3 -0.9 0 -1.4 -3.1 -0.8 -4.8 0.8 -1 1.1 -1.7 1.3 -2 0.5 -0.6 -1.7 -3.3 -1.3 -4.9 0.7 -1 1.2 -1.6 1.4 -1.9 0.5 -0.7 -1.6 -3.4 -1.7 -3.4 -0.2 0 0.8 -0.5 0.7 -1.6 -0.1 -1.3 -1.1 -1.6 -1 -2.1 0.8 -0.4 1.8 -0.7 1.9 -1.9 0.8 -1.1 -1.2 -2.1 -1.2 -5.9 0 -2.5 0.7 -5 1.6 -5.5 1.9 -0.6 0.4 -0.6 -0.4 0 -2z"/>
 </g>
 <g fill="#2073b4">
  <path d="M136.8 306 c-0.2 -0.7 0.1 -3.4 0.8 -5.9 2.2 -8.7 2.6 -12.4 1.4 -11.6 -0.8 0.5 -1.1 -0.2 -0.9 -2.1 0.1 -1.6 -0.3 -4.2 -1 -5.8 -0.6 -1.6 -1 -3.4 -0.7 -4 0.2 -0.6 0.5 -0.4 0.5 0.5 0.1 1.1 0.9 1.6 2.5 1.5 1.6 -0.1 2.2 -0.6 1.8 -1.5 -0.3 -0.9 -0.1 -1.2 0.6 -0.7 0.8 0.5 1 0.1 0.5 -1 -0.4 -1.1 -0.3 -1.5 0.5 -1 1.4 0.8 2.6 -5.2 1.9 -9.7 -0.2 -1.7 0.2 -4.4 0.9 -5.9 0.8 -1.6 1.1 -3.9 0.8 -5.7 -0.7 -3.4 0 -3.7 3.8 -2.1 4.7 2.1 23.8 15.8 23.8 17.2 0 0.4 -1.6 0.8 -3.5 0.8 -4.3 0 -4.7 0.8 -6.4 14.4 -0.7 5.6 -1.9 10.5 -2.7 11.3 -2.3 2.3 -1.6 3.3 2.2 3.3 3.1 0 3.5 0.3 3.2 2.2 -0.3 2 -1.3 2.5 -6.8 3.5 -3.8 0.6 -6.6 0.8 -6.8 0.2 -0.5 -1.2 -3.2 -1.2 -3.2 0 0 1.7 -5 2.2 -6.6 0.6 -2.1 -2 -2.9 -1.9 -4.6 0.7 -1.1 1.6 -1.6 1.9 -2 0.8z"/>
  <path d="M289 141.5 c-3.6 -1.3 -7.1 -2.8 -7.7 -3.4 -0.7 -0.7 -1.3 -0.8 -1.3 -0.2 0 0.5 -0.9 0.7 -2 0.4 -1.1 -0.3 -2 -0.9 -2 -1.3 0 -0.4 -1.1 -0.5 -2.5 -0.2 -1.8 0.3 -3 -0.1 -3.9 -1.4 -1.2 -1.6 -1.5 -1.7 -3 -0.2 -2 2 -7 1.4 -9.5 -1.1 -1.7 -1.7 -1.7 -1.9 0 -3 2.4 -1.4 2.4 -3.9 0.2 -4.9 -1.1 -0.4 0.7 -0.9 4.7 -1.3 6.1 -0.5 17.8 0.9 26.3 3.2 3.5 0.9 3.7 1.2 3.7 4.8 0 3.4 0.3 4 2.7 4.6 3.1 0.7 4.3 2.1 4.3 4.8 0 2.2 -1.8 2 -10 -0.8z"/>
 </g>
 <g fill="#2363aa">
  <path d="M158.7 302.6 c-0.4 -0.9 -1.6 -1.6 -2.7 -1.6 -1.9 0 -1.9 -0.2 -0.8 -2.2 0.7 -1.3 1.3 -2.5 1.3 -2.8 0.4 -2.3 1.8 -5 2.7 -5 0.6 0 0.8 -1.5 0.6 -3.4 -0.2 -1.9 -0.1 -3.3 0.3 -3 0.4 0.2 0.9 -1.4 1.1 -3.5 0.2 -2.3 -0.1 -3.7 -0.6 -3.4 -0.5 0.4 -0.7 0 -0.4 -0.8 0.3 -0.8 1.3 -3.8 2.3 -6.7 0.9 -2.9 2.3 -5.6 3.1 -5.9 1.7 -0.6 4.6 0.8 12.4 5.8 3 2 8.1 4.6 11.3 5.9 6.4 2.6 7.6 5 2.4 5 -3 0 -3.3 0.3 -4.2 4.3 -1.8 7.6 -1.5 7.9 7.7 7.1 8 -0.7 8 -0.7 7.6 1.7 -0.3 2.2 -1.2 2.5 -19.3 5.5 -10.5 1.8 -19.1 2.8 -19.3 2.3 -0.6 -1.4 -2.4 -1.1 -3.7 0.7 -1.1 1.6 -1.2 1.6 -1.8 0z"/>
  <path d="M319.5 155.7 c-2.2 -1.6 -8.6 -5.2 -14.2 -8 -5.7 -2.7 -10.3 -5.4 -10.3 -5.8 0 -0.5 -0.7 -0.6 -1.5 -0.3 -0.8 0.4 -1.5 0.1 -1.5 -0.5 0 -0.6 -0.7 -0.8 -1.5 -0.5 -0.8 0.4 -1.5 0.1 -1.5 -0.5 0 -0.6 -0.7 -0.8 -1.5 -0.5 -0.8 0.4 -1.5 0.1 -1.5 -0.5 0 -0.6 -0.7 -0.8 -1.5 -0.5 -2.8 1.1 -1.5 -1.5 1.6 -3.1 4.1 -2.2 3.3 -3.7 -2.9 -5.5 -7 -2.2 -7.1 -2.7 -0.3 -2.3 6.2 0.3 20.5 5 30.2 9.8 8 4.1 20.9 12.5 20.9 13.7 0 0.7 -1.8 0.9 -4.9 0.5 l-5 -0.6 -0.3 3.8 -0.3 3.8 -4 -3z"/>
 </g>
 <g fill="#25519b">
  <path d="M180.5 298.2 c-0.4 -1 0.1 -2.1 1 -2.9 1.1 -0.7 1.8 -3.1 2.1 -6.5 0.4 -4.6 0.8 -8.8 1.3 -11.6 0.1 -0.6 5.6 -0.8 5.6 -0.2 0 0.4 22.8 5.7 27.8 6.5 2.4 0.4 3.7 1.1 3.7 2.2 0 1.1 0.6 1.4 2.3 0.9 1.2 -0.3 8.3 -0.8 15.7 -1.1 13.1 -0.5 13.4 -0.4 8.8 1.1 -8.2 2.6 -48.3 10.4 -48.6 9.4 -0.5 -1.4 -2.1 -1.2 -3.8 0.5 -1.8 1.7 -3.4 2 -3.4 0.5 0 -0.5 -0.9 -1 -2.1 -1 -1.5 0 -1.9 0.5 -1.5 1.5 0.5 1.4 0.4 1.4 -1.6 0 -2.8 -1.9 -4.9 -2 -4.2 -0.1 0.3 0.7 -0.1 1.6 -1 1.9 -0.8 0.3 -1.7 -0.1 -2.1 -1.1z"/>
  <path d="M366 252 c0 -2.9 0.2 -3 4.5 -3 3.8 0 4.5 0.3 4.5 1.9 0 1.2 -1.1 2.3 -3.1 3 -5 1.7 -5.9 1.4 -5.9 -1.9z"/>
  <path d="M352.8 242.8 c0.7 -0.7 1.2 -2 1.2 -3 0 -2.4 -4.7 -2.5 -5.3 0 -0.3 0.9 -0.5 0 -0.6 -2 -0.1 -3.2 0.2 -3.8 1.9 -3.8 1.1 0 2 -0.7 2 -1.5 0 -1.1 1.2 -1.5 4.5 -1.5 l4.5 0 0 4.3 c-0.1 3.3 -0.3 3.8 -1.1 2.5 -1.2 -2.1 -3.5 -2.4 -4.2 -0.5 -0.6 1.7 1.2 4.9 2.4 4.2 0.5 -0.4 0.9 0.1 0.9 0.9 0 1.2 -1 1.6 -3.7 1.6 -2.9 0 -3.4 -0.3 -2.5 -1.2z"/>
  <path d="M366 237 c0 -1.1 -0.4 -2 -1 -2 -0.5 0 -1 -1.6 -1 -3.6 l0 -3.6 5 0.4 c3.5 0.2 5 -0.1 5 -0.9 0 -0.9 2 -1.3 6.5 -1.3 l6.5 0 0 6.5 0 6.5 -5.2 0 c-7.7 0 -9.8 -0.8 -9.8 -3.6 0 -1.7 -0.6 -2.4 -2 -2.4 -2.6 0 -2.8 4.6 -0.2 5.3 1 0.3 0.6 0.5 -1 0.6 -2.2 0.1 -2.8 -0.4 -2.8 -1.9z m11.8 -3.3 c0.2 -1.9 -0.1 -2.7 -1.3 -2.7 -1.9 0 -3 2.4 -2.1 4.6 0.9 2.3 3.1 1.1 3.4 -1.9z m6.7 -1.2 c0 -1.3 -0.8 -2.1 -2.2 -2.3 -1.7 -0.3 -2.3 0.2 -2.3 1.6 0 1 0.3 2.2 0.7 2.6 1.3 1.3 3.8 0.1 3.8 -1.9z"/>
  <path d="M366.1 204.1 l-5.5 -0.6 -4.6 -8.1 c-7.8 -13.6 -19.5 -27 -31.2 -35.8 -2.1 -1.6 -3.8 -3.7 -3.8 -4.7 0 -1.1 -0.6 -1.9 -1.4 -1.9 -1.8 0 -2.9 -2.9 -1.7 -4.4 0.6 -0.7 0.7 -2.3 0.4 -3.6 -0.5 -1.9 -0.3 -2.2 1.1 -1.7 1 0.4 2.7 0.7 3.9 0.7 1.8 0 1.9 0.2 0.7 1 -1.2 0.8 -0.9 1 1.3 1 1.6 0 2.6 0.4 2.3 0.9 -0.4 0.5 0.7 1.2 2.4 1.6 3.8 0.8 20.1 16.2 27.3 25.8 7.5 9.9 15.7 24.5 15.7 27.9 0 1.5 -0.3 2.7 -0.7 2.6 -0.5 -0.1 -3.2 -0.4 -6.2 -0.7z"/>
 </g>
 <g fill="#293c90">
  <path d="M243 377.1 c-37.9 -4 -71.4 -24 -92.5 -55.1 -2.6 -3.9 -4.5 -7.3 -4.2 -7.6 0.7 -0.8 7.7 -2.3 10.4 -2.4 1.5 0 3.6 2 7.2 6.8 6.2 8.4 19.6 21.4 27.6 26.9 13.1 8.9 28.6 15.1 44.6 17.9 13.3 2.3 35.7 1.4 49.2 -2.1 41.9 -10.7 75.7 -47.2 83.2 -90 0.8 -4.9 1.7 -9 1.9 -9.2 0.8 -0.9 11.7 -3.5 12.2 -3 0.3 0.3 -0.1 5 -1 10.4 -5.1 32.7 -24.3 64.1 -51.1 84.1 -11 8.1 -29.6 16.7 -43.5 20.1 -13.7 3.3 -31.1 4.5 -44 3.2z"/>
  <path d="M216 293.4 c0 -1.8 -3.1 -2.6 -4.8 -1.2 -1.3 1.1 -1.4 1.1 -0.7 -0.2 0.4 -0.8 1.7 -2.5 2.9 -3.8 1.8 -2 1.8 -2.5 0.6 -3.3 -1 -0.7 2.2 -0.8 10.5 -0.4 6.6 0.4 13.5 0.7 15.3 0.6 3.1 -0.2 3.2 -0.1 2.1 2.1 -0.8 1.4 -1.4 1.8 -1.7 1 -0.5 -1.6 -2.9 -1.5 -3.5 0.2 -0.6 1.5 -5.7 2.8 -5.7 1.5 0 -1.5 -2.2 -1 -3.7 0.9 -1 1.2 -1.6 1.4 -1.9 0.5 -0.7 -1.5 -3.4 -1.7 -3.4 -0.3 0 0.5 -0.7 0.7 -1.5 0.3 -0.9 -0.3 -2.2 0.2 -3 1.3 -0.8 1.1 -1.5 1.4 -1.5 0.8z"/>
  <path d="M240 277.3 c-5.7 -0.6 -25 -4.3 -31 -5.9 -9 -2.5 -24.1 -8.6 -23.7 -9.7 0.1 -0.5 7.7 -3 16.7 -5.4 9.1 -2.4 25.1 -6.8 35.7 -9.8 10.6 -3 20 -5.5 21 -5.5 1 0 6.8 5 13 11.2 6.2 6.2 11.5 11 11.8 10.7 0.3 -0.3 -0.5 -1.9 -1.7 -3.5 -2.4 -3.1 -29.6 -36.4 -30.7 -37.7 -0.4 -0.4 -4.1 0.9 -8.2 2.9 -5.7 2.8 -7.9 3.4 -9.8 2.8 -3.2 -1.2 -4.5 -3.5 -3.7 -6.8 0.5 -2.1 2.1 -3.3 7.3 -5.7 6 -2.7 6.5 -3.1 5.1 -4.7 -2.7 -3.1 -22.2 -27.6 -26.8 -33.5 -6.1 -7.9 -11 -15 -11 -16 0 -2.3 10.2 5.5 45.5 34.8 45.2 37.5 60.4 48.4 52.3 37.5 -2.8 -3.8 -3 -3.6 11.8 -8.9 27.6 -9.8 46.8 -13.9 56.7 -12.2 7.5 1.3 9.1 2.6 5.1 4.1 -7.5 2.9 -9.4 4.2 -9.4 6.6 0 2.8 2.4 3.1 10.7 1.5 2.6 -0.5 7.8 -1.5 11.4 -2.2 l6.6 -1.2 4.6 3.1 c15 10.4 10.8 16.9 -17.1 26.6 -5.6 1.9 -10.2 3.1 -10.2 2.6 0 -0.6 -0.7 -1 -1.5 -1 -0.8 0 -1.5 0.6 -1.5 1.4 0 2.8 -42.3 13.1 -81.3 19.6 -28.2 4.7 -36.5 5.5 -47.7 4.3z m76.8 -27.7 c-0.4 -2.5 -3.6 -3.4 -4.4 -1.2 -0.8 2.1 1.3 4.6 3.2 3.9 0.8 -0.3 1.4 -1.5 1.2 -2.7z m6.2 -1 c0 -3 -1.6 -4.2 -3.4 -2.6 -1.9 1.5 -0.8 5 1.5 5 1.3 0 1.9 -0.7 1.9 -2.4z m6 -2.2 c0 -1.7 -0.6 -2.4 -2 -2.4 -1.4 0 -2 0.7 -2 2.3 0 1.3 0.3 2.6 0.6 3 1.2 1.2 3.4 -0.6 3.4 -2.9z m5.5 -1.4 c0 -1.3 -0.6 -2.5 -1.2 -2.7 -1.6 -0.6 -2.7 2.1 -1.9 4.3 0.9 2.3 3.1 1.1 3.1 -1.6z m6.9 0.1 c1 -1.6 -0.5 -4.1 -2.5 -4.1 -1.4 0 -1.9 0.7 -1.9 2.5 0 1.8 0.5 2.5 1.9 2.5 1.1 0 2.2 -0.4 2.5 -0.9z m5.4 -1 c1.9 -1.1 1.1 -4.5 -1.1 -4.9 -1.9 -0.4 -3.2 2 -2.3 4.3 0.6 1.7 1.5 1.9 3.4 0.6z m6.8 -2.6 c0.4 -1 1.1 -1.2 2.2 -0.6 3.7 1.9 5.6 -1.5 2.8 -5.1 -2 -2.6 -3.6 -2.2 -3.6 1 0 1.9 -0.3 2.3 -0.9 1.3 -1.2 -1.8 -5.1 -0.5 -5.1 1.8 0 3.2 3.5 4.5 4.6 1.6z m12.2 -4.3 c0.3 -1.6 -0.2 -2.2 -1.6 -2.2 -2.5 0 -3.1 0.7 -2.5 3.1 0.7 2.7 3.7 2 4.1 -0.9z m6.2 -1.3 c0 -2.2 -2.2 -4.9 -4 -4.9 -0.6 0 -0.9 1.1 -0.6 2.8 0.2 1.5 0.5 3 0.5 3.5 0.1 0.4 1 0.7 2.1 0.7 1.4 0 2 -0.7 2 -2.1z m5.4 0.5 c0.9 -0.3 1.6 -1.4 1.6 -2.3 0.1 -1.4 0.2 -1.4 1.1 0.2 2 3.4 5.9 0.5 4.4 -3.4 -0.6 -1.6 -7.5 -2.4 -7.5 -1 0 0.5 -0.9 1.2 -1.9 1.6 -1.9 0.6 -2.2 2 -0.8 4.3 0.9 1.4 1 1.4 3.1 0.6z"/>
  <path d="M370 203 c-1.3 -2.4 -6.6 -2.9 -5.6 -0.5 0.9 2.6 -2.4 1.7 -3.6 -0.9 -1.4 -3.2 -0.4 -5.7 1.9 -5 1 0.3 1.4 0.2 0.8 -0.3 -1.3 -1 -1.8 -3 -1.9 -7 -0.1 -1.7 -0.4 -3.5 -0.8 -3.9 -1.3 -1.3 -0.9 -3.4 0.7 -3.4 1.8 0 2 1.6 0.3 2.3 -0.8 0.3 -0.6 0.6 0.4 0.6 1.1 0.1 1.5 0.6 1.2 1.6 -0.4 0.9 0.1 1.7 1.2 2.1 3.5 1.3 4.5 2.5 3.3 4 -1.3 1.6 -0.2 3.7 1.7 3 0.8 -0.3 1.4 -0.1 1.4 0.3 0 0.5 -0.6 1.2 -1.2 1.4 -0.8 0.3 -0.6 0.6 0.4 0.6 3.1 0.2 5.4 7.1 2.3 7.1 -0.8 0 -1.9 -0.9 -2.5 -2z"/>
 </g>
</svg>