<svg width="86" height="68" viewBox="0 0 86 68" fill="none" xmlns="http://www.w3.org/2000/svg">
<path d="M49.7063 61.1746C49.7063 61.1746 48.0419 64.2711 48.3439 64.9136C48.6458 65.5562 52.052 66.7793 51.9358 67.1199C51.8197 67.4605 44.4112 67.2748 44.148 66.8954C43.8848 66.5161 43.9932 66.3613 43.9545 65.4478C43.9158 64.5343 46.6717 60.2998 46.6717 60.2998" fill="#231F20"/>
<path d="M49.3497 67.6703C47.1202 67.6703 44.132 67.5464 43.8301 67.1129C43.6186 66.811 43.5275 66.4411 43.5746 66.0755C43.5746 65.9207 43.5746 65.7272 43.5746 65.464C43.5359 64.5041 45.688 61.1056 46.3538 60.0915C46.3805 60.048 46.4158 60.0104 46.4574 59.9809C46.4991 59.9514 46.5463 59.9306 46.5961 59.9198C46.646 59.9089 46.6976 59.9083 46.7477 59.9178C46.7978 59.9274 46.8455 59.947 46.8879 59.9754C46.974 60.0309 47.0346 60.1183 47.0564 60.2184C47.0782 60.3186 47.0593 60.4232 47.004 60.5095C45.7112 62.499 44.3333 64.9453 44.3488 65.433V66.0833C44.3488 66.4007 44.3488 66.4858 44.4184 66.602C46.5823 66.8754 48.7649 66.9712 50.9444 66.8884L50.3251 66.5865C49.0091 65.9517 48.1962 65.5337 48.0027 65.0382C47.6621 64.2641 48.8542 61.9417 49.3806 60.9585C49.405 60.9138 49.438 60.8743 49.4777 60.8423C49.5173 60.8103 49.5629 60.7865 49.6118 60.7721C49.6607 60.7577 49.7119 60.7531 49.7626 60.7585C49.8132 60.7639 49.8623 60.7793 49.907 60.8037C49.9518 60.8281 49.9913 60.8611 50.0233 60.9007C50.0552 60.9404 50.0791 60.9859 50.0935 61.0348C50.1079 61.0837 50.1125 61.1349 50.1071 61.1856C50.1016 61.2363 50.0863 61.2854 50.0619 61.3301C49.2335 62.8784 48.6142 64.4266 48.7149 64.7286C49.3141 65.1914 49.9729 65.5715 50.6734 65.8588C51.9508 66.4781 52.4772 66.7336 52.3146 67.2135C52.2217 67.4922 51.9043 67.5387 51.7185 67.5696C51.5327 67.6006 50.4876 67.6703 49.3497 67.6703Z" fill="#231F20"/>
<path d="M46.198 32.3851L32.9216 28.5996L21.5341 45.5687C21.5341 45.5687 5.58691 55.8105 5.58691 56.2827C5.58691 56.9407 8.31187 61.4462 8.31187 61.4462C8.31187 61.4462 18.3756 57.4516 26.6202 53.7048C33.1848 50.7399 39.9043 40.9316 39.9043 40.9316L52.5459 46.7453L44.8046 61.1752L50.7422 61.6939C50.7422 61.6939 59.2577 50.0819 62.0833 43.7262C64.9089 37.3706 46.198 32.3851 46.198 32.3851Z" fill="#231F20"/>
<path d="M50.7041 62.0803L44.7588 61.5617C44.6956 61.556 44.6349 61.5346 44.5822 61.4995C44.5294 61.4643 44.4863 61.4165 44.4568 61.3604C44.4264 61.3046 44.4104 61.242 44.4104 61.1785C44.4104 61.1149 44.4264 61.0523 44.4568 60.9965L52.0743 46.9383L40.0675 41.4574C38.914 43.0908 32.868 51.3663 26.8066 54.1067C18.6859 57.7684 8.58345 61.7707 8.48281 61.8094C8.39864 61.8447 8.30455 61.8485 8.21781 61.8201C8.13107 61.7916 8.0575 61.7329 8.01059 61.6546C7.17452 60.2689 5.23145 57.0097 5.23145 56.2898C5.23145 56.0189 5.23144 55.6086 21.287 45.2971L32.6281 28.3977C32.6727 28.3291 32.738 28.2763 32.8145 28.2471C32.891 28.2179 32.9748 28.2137 33.0538 28.2352L46.338 32.0129C46.9341 32.1755 59.9318 35.6823 62.3548 40.7452C62.6052 41.2289 62.7423 41.7632 62.7557 42.3078C62.7691 42.8523 62.6585 43.3927 62.4323 43.8882C59.6221 50.2515 51.1299 61.8094 51.0447 61.9255C51.0062 61.9785 50.9545 62.0207 50.8948 62.0478C50.8351 62.075 50.7694 62.0862 50.7041 62.0803ZM45.3858 60.834L50.5183 61.283C51.5944 59.8121 59.1035 49.4232 61.6968 43.5708C61.8768 43.1763 61.9641 42.7459 61.952 42.3125C61.9399 41.8791 61.8288 41.4542 61.6272 41.0703C59.3512 36.3171 46.2374 32.7871 46.1445 32.7561L33.1313 29.048L21.8986 45.7848C21.8685 45.8265 21.8319 45.8631 21.7902 45.8932C15.9222 49.6632 7.08162 55.4228 6.04428 56.3904C6.7659 57.9682 7.59086 59.4965 8.51377 60.9656C10.2633 60.2689 19.1891 56.6924 26.5047 53.3868C32.899 50.507 39.5643 40.8458 39.665 40.7452C39.7167 40.6703 39.7932 40.6161 39.881 40.592C39.9688 40.568 40.0622 40.5756 40.1449 40.6136L52.8175 46.3964C52.8656 46.4179 52.9088 46.4489 52.9447 46.4875C52.9806 46.526 53.0084 46.5714 53.0265 46.6209C53.0478 46.6697 53.0588 46.7224 53.0588 46.7757C53.0588 46.829 53.0478 46.8817 53.0265 46.9305L45.3858 60.834Z" fill="#231F20"/>
<path d="M77.9148 18.4584C77.9148 18.4584 83.4422 18.6055 83.5428 18.4584C83.6434 18.3113 84.7659 9.94294 83.8912 10.2836C83.0164 10.6242 81.2204 15.4161 81.2204 15.4161L77.2568 15.0445" fill="white"/>
<path d="M81.8786 18.9148C81.0116 18.9148 79.7497 18.9148 77.8995 18.8452C77.849 18.8442 77.7993 18.8331 77.7531 18.8126C77.7069 18.7922 77.6653 18.7627 77.6307 18.7259C77.5961 18.6891 77.5692 18.6458 77.5515 18.5985C77.5339 18.5512 77.5259 18.5008 77.5279 18.4504C77.5338 18.349 77.5777 18.2536 77.6509 18.1832C77.7241 18.1129 77.8212 18.0728 77.9227 18.071C80.0748 18.133 82.4901 18.1639 83.2256 18.1175C83.4269 16.9718 83.9997 12.2186 83.8139 10.8638C82.9035 12.3436 82.1535 13.9163 81.5767 15.5551C81.5467 15.6337 81.492 15.7004 81.4207 15.745C81.3495 15.7897 81.2656 15.81 81.1818 15.8028L77.226 15.4312C77.124 15.4214 77.0298 15.3723 76.9634 15.2943C76.8969 15.2163 76.8634 15.1155 76.8699 15.0132C76.8834 14.9113 76.9346 14.8182 77.0135 14.7522C77.0923 14.6863 77.193 14.6523 77.2957 14.6571L80.9651 15.0055C81.4992 13.6198 82.8617 10.2987 83.7442 9.92714C83.8487 9.88353 83.9647 9.87584 84.0739 9.90526C84.1832 9.93469 84.2796 9.99956 84.3481 10.0897C85.0448 10.9722 84.0849 18.3807 83.8604 18.6904C83.7597 18.822 83.6901 18.9148 81.8786 18.9148Z" fill="#231F20"/>
<path d="M48.9777 11.4288C46.5082 10.3373 44.1625 12.7603 42.7846 14.5253C39.1539 19.0463 36.2354 24.2562 33.0537 29.1255C33.0537 29.1255 39.9048 41.024 49.3957 35.0399L59.893 19.1314H76.862C76.862 19.1314 76.9162 17.8773 76.862 14.7343C76.862 14.6724 49.8369 11.8004 48.9777 11.4288Z" fill="white"/>
<path d="M44.0312 37.0528C43.2823 37.0543 42.536 36.9633 41.8095 36.7818C36.3131 35.4193 32.8605 29.5204 32.7134 29.265C32.6773 29.204 32.6582 29.1345 32.6582 29.0637C32.6582 28.9929 32.6773 28.9233 32.7134 28.8624C33.6501 27.4303 34.579 25.9439 35.477 24.504C37.5962 20.9437 39.9226 17.511 42.4442 14.2235C43.3422 13.1088 46.0517 9.71805 49.0863 11.0573C49.7443 11.2818 58.4301 12.2959 74.896 14.0842C77.2184 14.3319 77.2184 14.3319 77.2184 14.657C77.2648 17.7536 77.2184 19.0386 77.2184 19.0928C77.2144 19.1928 77.1718 19.2873 77.0997 19.3566C77.0275 19.4258 76.9313 19.4645 76.8313 19.4644H60.1022L49.7134 35.2026C49.6867 35.2498 49.6462 35.2876 49.5972 35.311C47.9474 36.4135 46.0152 37.0181 44.0312 37.0528ZM33.5107 29.0792C34.161 30.1165 37.3814 34.8852 42.0262 36.0464C43.2396 36.3292 44.4985 36.3569 45.7232 36.1277C46.9478 35.8985 48.1115 35.4174 49.1405 34.7149L59.5913 18.8838C59.6273 18.8303 59.6756 18.7861 59.7322 18.7551C59.7888 18.7241 59.852 18.7072 59.9165 18.7058H76.5139C76.5139 18.1639 76.5139 16.9949 76.5139 15.0441L74.8805 14.8661C57.416 12.9694 49.3882 12.025 48.8541 11.7695C47.1742 10.9954 45.3008 11.9863 43.1177 14.7112C40.5999 17.9746 38.2735 21.3813 36.1505 24.9143C35.2912 26.2923 34.401 27.6857 33.5107 29.0792Z" fill="#231F20"/>
<path d="M51.5556 11.2588C48.6294 10.5775 49.7131 5.49145 50.4873 3.43225C50.6393 2.97446 50.8756 2.54912 51.184 2.17816C51.5198 1.85797 51.9199 1.61297 52.3577 1.45947C52.7955 1.30597 53.261 1.24748 53.7232 1.2879C54.6429 1.37385 55.5558 1.52127 56.4559 1.72916C58.5117 2.07624 60.6221 1.89237 62.587 1.195C63.2528 0.955022 64.0192 0.676332 64.6152 1.04792C64.7969 1.18167 64.9472 1.35352 65.0555 1.55142C65.1638 1.74933 65.2276 1.96851 65.2423 2.19364C65.2768 2.72748 65.1748 3.2613 64.9459 3.74481C64.717 4.22832 64.3688 4.64559 63.934 4.9573C63.0367 5.52598 62.007 5.85146 60.9458 5.90174C61.0852 6.73007 61.2245 6.99328 60.7291 7.67451C60.2362 8.28732 59.6418 8.81101 58.9718 9.22278C58.2531 9.63306 57.5054 9.99011 56.7345 10.2911C55.1166 11.0033 53.5374 11.6303 51.7027 11.2897L51.5556 11.2588Z" fill="white"/>
<path d="M52.7556 11.7693C52.3792 11.7693 52.0035 11.7356 51.6331 11.6686H51.4705C51.1031 11.5912 50.7577 11.432 50.4602 11.2028C50.1627 10.9736 49.9206 10.6804 49.752 10.3449C48.6991 8.39403 49.5352 4.92591 50.1235 3.37764C50.293 2.87152 50.5555 2.40155 50.8977 1.99194C51.2717 1.63265 51.7175 1.35655 52.2059 1.18177C52.6942 1.00699 53.2139 0.937485 53.731 0.977825C54.3857 1.01728 55.0358 1.11311 55.6741 1.26426L56.5179 1.42682C58.5091 1.76014 60.5523 1.58166 62.4555 0.908156C63.2297 0.64495 64.0735 0.335291 64.7779 0.799772C65.005 0.964459 65.1924 1.17784 65.3263 1.4243C65.4603 1.67076 65.5374 1.94406 65.5521 2.22418C65.5934 2.82156 65.4813 3.41958 65.2266 3.96151C64.9719 4.50344 64.583 4.97131 64.0967 5.32072C63.2723 5.87673 62.3169 6.20764 61.3253 6.28065C61.4078 6.56665 61.4193 6.8685 61.3585 7.15993C61.2978 7.45136 61.1668 7.72354 60.9769 7.95278C60.4515 8.60281 59.8209 9.16017 59.1113 9.60169C58.5365 9.94212 57.936 10.2372 57.3153 10.4842L56.8198 10.701C55.5529 11.3327 54.1694 11.6964 52.7556 11.7693ZM53.5297 1.70551C53.1456 1.68317 52.761 1.74039 52.4 1.8736C52.039 2.00681 51.7094 2.21314 51.4318 2.47965C51.1547 2.81312 50.9445 3.19686 50.8125 3.60988C50.1777 5.30524 49.543 8.39403 50.3945 9.98101C50.5123 10.218 50.6821 10.4253 50.8912 10.5875C51.1003 10.7497 51.3433 10.8626 51.6021 10.9177H51.726C53.4136 11.2351 54.8225 10.6932 56.5334 9.95004L57.0366 9.73329C57.6192 9.50575 58.1812 9.22863 58.7165 8.90496C59.3478 8.52125 59.9082 8.03153 60.3731 7.45733C60.6982 7.0006 60.675 6.86125 60.5744 6.28065L60.5202 5.97874C60.5043 5.87535 60.5293 5.76985 60.5899 5.68457C60.6205 5.64424 60.6588 5.61045 60.7027 5.58519C60.7466 5.55993 60.7951 5.54371 60.8453 5.53748H61.0156C61.9538 5.48978 62.8635 5.199 63.6554 4.69367C64.0375 4.42451 64.3442 4.06184 64.5462 3.64033C64.7481 3.21882 64.8386 2.75256 64.8089 2.28612C64.7985 2.1183 64.7532 1.9545 64.6759 1.8052C64.5986 1.6559 64.491 1.52438 64.3599 1.41908C63.9341 1.15588 63.2838 1.41908 62.7032 1.58939C60.6889 2.30502 58.5252 2.49421 56.4173 2.13903C56.1231 2.09258 55.8367 2.03065 55.5425 1.97646C54.9483 1.83067 54.3419 1.73997 53.731 1.70551H53.5297Z" fill="#231F20"/>
<path d="M59.42 9.80273C59.42 9.80273 59.629 12.2413 59.18 12.4812C58.731 12.7212 58.0498 12.0245 58.0498 12.0245" fill="white"/>
<path d="M58.972 12.9153C58.5134 12.8579 58.0905 12.6382 57.7798 12.296C57.7169 12.2215 57.6844 12.126 57.6889 12.0286C57.6933 11.9312 57.7344 11.8391 57.8038 11.7706C57.8732 11.7021 57.966 11.6624 58.0634 11.6594C58.1609 11.6563 58.2559 11.6901 58.3295 11.7541C58.5772 12.0018 58.9178 12.1799 59.003 12.1412C59.1037 11.3703 59.1037 10.5896 59.003 9.81878C58.9965 9.71651 59.03 9.61572 59.0965 9.53771C59.1629 9.4597 59.2571 9.41059 59.3591 9.40075C59.4099 9.39651 59.4611 9.40239 59.5097 9.41802C59.5583 9.43365 59.6033 9.45874 59.6422 9.49183C59.681 9.52493 59.713 9.56538 59.7361 9.61087C59.7593 9.65635 59.7732 9.70596 59.7771 9.75685C59.9319 11.5451 59.7771 12.567 59.3281 12.8069C59.22 12.8715 59.0978 12.9087 58.972 12.9153Z" fill="#231F20"/>
<path d="M61.2086 5.6621C61.6266 6.68395 59.9545 9.53277 59.4822 10.3069C58.8217 11.4991 58.1353 12.6706 57.423 13.8215C56.9741 14.5492 55.0077 13.5041 54.791 13.0473L53.4672 16.1981C52.5341 15.8445 51.7427 15.1945 51.2145 14.3479C50.0378 12.7609 50.2236 12.3816 50.2236 12.3816L52.2286 9.0141C52.7012 9.21733 53.2206 9.28656 53.7299 9.21419C54.2393 9.14182 54.7189 8.93064 55.1161 8.60381C56.2884 7.63387 57.2612 6.44551 57.9804 5.10472C57.9804 5.10472 60.7983 4.65572 61.2086 5.6621Z" fill="white"/>
<path d="M53.4672 16.6619H53.382C52.3555 16.297 51.4826 15.5959 50.9048 14.6724C50.03 13.488 49.6816 12.6906 49.8752 12.3035L51.9034 8.90509C51.955 8.81927 52.0379 8.75681 52.1346 8.73083C52.2314 8.70484 52.3344 8.71736 52.4221 8.76574C52.8309 8.93413 53.278 8.98708 53.7148 8.91883C54.1517 8.85058 54.5614 8.66374 54.8993 8.37868C56.0202 7.44528 56.9507 6.30455 57.6397 5.01893C57.6663 4.96675 57.7046 4.92142 57.7516 4.8865C57.7986 4.85158 57.853 4.82802 57.9107 4.81766C58.4294 4.71702 61.0614 4.29899 61.5646 5.52986C61.9671 6.51301 61.0227 8.41739 59.9467 10.3295L59.8228 10.554C59.1648 11.7307 58.4681 12.9151 57.7559 14.0763C57.6553 14.2302 57.5133 14.3526 57.3462 14.4293C57.1791 14.506 56.9937 14.5339 56.8114 14.5098C56.1326 14.4424 55.4836 14.1966 54.9303 13.7976L53.8233 16.4374C53.7919 16.5052 53.7416 16.5625 53.6784 16.6023C53.6152 16.6421 53.5418 16.6628 53.4672 16.6619ZM50.6029 12.5745C50.7938 13.1744 51.1075 13.7281 51.5241 14.2002C51.9765 14.8417 52.5696 15.3713 53.2581 15.7484L54.4348 12.9538C54.4614 12.8861 54.507 12.8275 54.566 12.7849C54.625 12.7424 54.695 12.7177 54.7677 12.7138C54.842 12.71 54.9159 12.7277 54.9804 12.7648C55.0449 12.8018 55.0974 12.8567 55.1315 12.9228C55.6183 13.3545 56.2267 13.625 56.8733 13.697C56.943 13.697 57.0591 13.697 57.0978 13.6273C57.8023 12.4816 58.499 11.3049 59.1416 10.136L59.2732 9.91147C60.5273 7.68196 61.0614 6.29625 60.8214 5.78533C60.5815 5.2744 59.2732 5.34407 58.1971 5.50664C57.4724 6.84153 56.4911 8.02012 55.3096 8.97476C54.8979 9.29304 54.4175 9.5106 53.9067 9.61007C53.3959 9.70954 52.8689 9.68815 52.3679 9.54762L50.6029 12.5745Z" fill="#231F20"/>
<path d="M57.8792 12.977C57.5161 12.8632 57.2053 12.6239 57.0025 12.302C56.7996 11.98 56.718 11.5964 56.7722 11.2197" fill="white"/>
<path d="M57.8799 13.3413H57.787C57.3354 13.2041 56.9472 12.9107 56.692 12.5136C56.4367 12.1165 56.3309 11.6416 56.3936 11.1737C56.4018 11.0711 56.4504 10.9759 56.5288 10.9091C56.6072 10.8423 56.7089 10.8094 56.8116 10.8176C56.9143 10.8259 57.0095 10.8745 57.0762 10.9529C57.143 11.0313 57.1759 11.133 57.1677 11.2357C57.1166 11.5226 57.1717 11.8184 57.3227 12.0677C57.4737 12.317 57.7103 12.5028 57.9883 12.5904C58.0909 12.6038 58.1841 12.6573 58.2473 12.7394C58.3104 12.8214 58.3384 12.9251 58.325 13.0278C58.3117 13.1305 58.2581 13.2236 58.1761 13.2868C58.0941 13.3499 57.9903 13.3779 57.8877 13.3645L57.8799 13.3413Z" fill="#231F20"/>
<path d="M56.7261 9.32314C56.8514 9.00605 56.8888 8.66108 56.8345 8.32451C56.829 8.06139 56.7847 7.80052 56.7029 7.55037C56.6576 7.42721 56.5865 7.31516 56.4944 7.2217C56.4023 7.12824 56.2913 7.05555 56.1688 7.00848C56.0547 6.97931 55.9357 6.97457 55.8196 6.99458C55.7036 7.01459 55.593 7.0589 55.4953 7.1246C55.3011 7.25688 55.1397 7.4316 55.0231 7.63553C54.76 8.07207 54.6165 8.57018 54.607 9.07977C54.5974 9.58937 54.7223 10.0925 54.9689 10.5385V10.4302" fill="white"/>
<path d="M54.907 10.8791C54.8507 10.8819 54.7948 10.8689 54.7456 10.8415C54.6963 10.8141 54.6557 10.7735 54.6283 10.7243C54.3464 10.2164 54.2043 9.64284 54.2165 9.06211C54.2288 8.48137 54.3949 7.91428 54.698 7.41874C54.8487 7.16922 55.049 6.95319 55.2863 6.78395C55.4316 6.69048 55.5948 6.62843 55.7654 6.60176C55.9361 6.5751 56.1104 6.58442 56.2772 6.62913C56.4558 6.69223 56.6181 6.79451 56.752 6.92846C56.886 7.06241 56.9883 7.22464 57.0514 7.40326C57.1441 7.70419 57.191 8.01733 57.1907 8.33222C57.2538 8.74132 57.2001 9.15992 57.0359 9.53987C56.9866 9.63023 56.904 9.69779 56.8057 9.72815C56.7074 9.75852 56.6011 9.74929 56.5095 9.70244C56.4614 9.67169 56.4204 9.63109 56.3893 9.58332C56.3581 9.53555 56.3374 9.4817 56.3287 9.42534C56.3199 9.36897 56.3232 9.31139 56.3383 9.2564C56.3535 9.2014 56.3801 9.15026 56.4166 9.10635C56.5088 8.85923 56.5328 8.59184 56.4862 8.33222C56.4843 8.1086 56.4477 7.88664 56.3779 7.67421C56.3568 7.60327 56.3202 7.53795 56.2706 7.48302C56.2211 7.4281 56.1598 7.38497 56.0914 7.35681C56.0318 7.34265 55.9698 7.34155 55.9096 7.35358C55.8495 7.3656 55.7927 7.39047 55.7431 7.42648C55.5972 7.52528 55.4776 7.65813 55.3947 7.81355C55.1862 8.16068 55.0641 8.55275 55.0385 8.95685C55.0129 9.36096 55.0846 9.7653 55.2476 10.136C55.3009 10.1798 55.3389 10.2394 55.356 10.3063C55.381 10.4034 55.3733 10.5061 55.3341 10.5984C55.295 10.6908 55.2265 10.7676 55.1392 10.8172C55.0667 10.853 54.9878 10.874 54.907 10.8791Z" fill="#231F20"/>
<path d="M54.7918 13.1239C54.3109 12.6204 53.9857 11.9886 53.8551 11.3047C53.8551 11.3047 52.9339 13.1549 54.2035 14.5251L54.7918 13.1239Z" fill="#231F20"/>
<path d="M54.2033 14.9124C54.1497 14.9119 54.0968 14.9006 54.0476 14.8793C53.9984 14.8581 53.954 14.8272 53.9169 14.7885C52.4847 13.2403 53.4679 11.2198 53.5066 11.1346C53.5449 11.0598 53.6061 10.9992 53.6813 10.9616C53.7565 10.924 53.8417 10.9114 53.9246 10.9256C54.0073 10.9403 54.083 10.9814 54.1402 11.0429C54.1975 11.1043 54.2332 11.1827 54.242 11.2662C54.3629 11.8514 54.6506 12.3891 55.0703 12.8145C55.1235 12.8685 55.1593 12.9371 55.1731 13.0116C55.1869 13.0862 55.1781 13.1631 55.1477 13.2325L54.5594 14.6337C54.5334 14.6938 54.493 14.7464 54.4416 14.787C54.3903 14.8275 54.3297 14.8546 54.2652 14.8659L54.2033 14.9124ZM53.9246 12.59C53.8774 12.9853 53.9362 13.3861 54.0949 13.7512L54.3194 13.2325C54.1716 13.0341 54.0396 12.8245 53.9246 12.6055V12.59Z" fill="#231F20"/>
<path d="M59.35 8.73739C59.5167 8.52583 59.5838 8.3007 59.4999 8.23454C59.4159 8.16838 59.2127 8.28625 59.046 8.49781C58.8793 8.70937 58.8122 8.93449 58.8961 9.00065C58.9801 9.06681 59.1833 8.94894 59.35 8.73739Z" fill="#231F20"/>
<path d="M59.7384 8.47181L59.1113 7.63574L59.7384 8.47181Z" fill="white"/>
<path d="M59.7383 8.85922C59.6771 8.86105 59.6164 8.84705 59.5622 8.81857C59.5079 8.79009 59.4619 8.7481 59.4287 8.69666L58.8016 7.86059C58.7717 7.82008 58.7502 7.77402 58.7383 7.7251C58.7264 7.67619 58.7243 7.62539 58.7323 7.57567C58.7402 7.52595 58.7579 7.47831 58.7845 7.43552C58.811 7.39273 58.8458 7.35565 58.8868 7.32644C58.9689 7.26484 59.0721 7.2384 59.1738 7.25292C59.2754 7.26743 59.3671 7.32173 59.4287 7.40385L60.048 8.23991C60.0781 8.28105 60.0997 8.32773 60.1118 8.37726C60.1238 8.42679 60.1259 8.4782 60.118 8.52855C60.1101 8.5789 60.0923 8.62719 60.0657 8.67065C60.039 8.71411 60.0041 8.75189 59.9628 8.78181C59.8977 8.83004 59.8193 8.85707 59.7383 8.85922Z" fill="#231F20"/>
<path d="M7.47584 55.624C7.47584 55.624 1.32147 59.2779 1.32147 59.8585C1.32147 60.4391 0.640226 60.1295 2.75361 64.5653C3.64387 66.4464 7.74679 67.6618 7.32875 66.2452C6.13659 62.1655 6.214 61.7319 6.214 61.7319L11.1065 59.7656" fill="#231F20"/>
<path d="M6.6777 67.2516C5.36941 67.2516 3.09346 66.1988 2.39673 64.728C0.616224 60.9734 0.763304 60.4857 0.902648 60.0135C0.910892 59.9622 0.910892 59.9099 0.902648 59.8586C0.902648 59.6187 0.90265 59.0845 7.24281 55.2912C7.3324 55.2401 7.43847 55.226 7.5383 55.252C7.63813 55.2781 7.72379 55.3422 7.77697 55.4306C7.82776 55.519 7.84161 55.6239 7.81552 55.7224C7.78943 55.821 7.72551 55.9053 7.63763 55.957C4.95912 57.5517 2.04063 59.4484 1.67678 59.9361C1.66847 60.0363 1.64768 60.1351 1.61486 60.2302C1.53745 60.4857 1.41358 60.9115 3.07023 64.3951C3.52697 65.3627 5.03653 66.1988 6.16677 66.4233C6.41932 66.4986 6.68835 66.4986 6.9409 66.4233C6.9409 66.4233 6.9409 66.4233 6.9409 66.3459C6.41168 64.8234 6.03565 63.2518 5.81841 61.6546C5.82972 61.5902 5.85686 61.5296 5.8974 61.4782C5.93794 61.4269 5.9906 61.3864 6.05065 61.3605L10.9432 59.4019C11.0377 59.3634 11.1435 59.3637 11.2378 59.4029C11.332 59.442 11.407 59.5168 11.4464 59.6109C11.4852 59.7065 11.4851 59.8135 11.446 59.909C11.4069 60.0045 11.332 60.0809 11.2374 60.1218L6.59254 61.972C6.87761 63.3757 7.23679 64.7634 7.66859 66.1291C7.7089 66.2279 7.72837 66.3339 7.72577 66.4405C7.72318 66.5472 7.69857 66.6521 7.65351 66.7488C7.60844 66.8454 7.54389 66.9318 7.46389 67.0023C7.3839 67.0729 7.29018 67.1261 7.18863 67.1587C7.02454 67.2174 6.85194 67.2488 6.6777 67.2516Z" fill="#231F20"/>
<path d="M77.9148 20.4246C77.9148 20.4246 83.4422 20.5717 83.5428 20.4246C83.6434 20.2775 85.2536 11.4137 84.3789 11.7775C83.5041 12.1413 81.6926 16.7939 81.6926 16.7939L77.2568 17.0107" fill="white"/>
<path d="M81.8783 20.8814C81.019 20.8814 79.7572 20.8814 77.8993 20.8118C77.798 20.8077 77.7023 20.7641 77.6328 20.6903C77.5633 20.6165 77.5256 20.5183 77.5277 20.417C77.5265 20.3655 77.536 20.3143 77.5557 20.2668C77.5753 20.2192 77.6046 20.1762 77.6417 20.1405C77.6789 20.1049 77.723 20.0773 77.7713 20.0596C77.8196 20.0419 77.8711 20.0344 77.9225 20.0376C80.0901 20.0918 82.5131 20.1228 83.2408 20.0841C83.7609 17.5516 84.0998 14.9853 84.2549 12.4047C83.3653 13.8341 82.6259 15.3518 82.0486 16.9334C82.0218 17.0031 81.9754 17.0636 81.915 17.1076C81.8545 17.1516 81.7827 17.1771 81.708 17.1811L77.28 17.3978C77.2291 17.4004 77.1783 17.3929 77.1304 17.3758C77.0824 17.3587 77.0383 17.3323 77.0006 17.2982C76.9244 17.2292 76.8787 17.1328 76.8735 17.0301C76.8684 16.9275 76.9043 16.827 76.9732 16.7508C77.0422 16.6745 77.1386 16.6288 77.2412 16.6237L81.4216 16.4147C81.948 15.0832 83.3337 11.7699 84.2317 11.4215C84.3328 11.3768 84.4461 11.3678 84.553 11.3959C84.6599 11.4241 84.754 11.4877 84.82 11.5763C85.5942 12.5517 83.8988 20.595 83.8601 20.6492C83.8214 20.7034 83.6975 20.8814 81.8783 20.8814Z" fill="#231F20"/>
<path d="M54.7918 19.3789L50.5186 29.0401L52.988 31.8734L55.744 29.0401V18.5273L54.7918 19.3789Z" fill="#231F20"/>
<path d="M47.8088 12.915L79.1768 16.2361L78.2788 21.895C78.2788 21.895 52.7323 22.4911 46.4541 20.4861" fill="white"/>
<path d="M69.7863 22.3672C61.7431 22.3672 50.3478 22.1272 46.3378 20.8576C46.287 20.8424 46.2396 20.8173 46.1985 20.7837C46.1574 20.7502 46.1233 20.7089 46.0981 20.6622C46.0729 20.6154 46.0572 20.5642 46.0519 20.5114C46.0465 20.4586 46.0516 20.4053 46.0669 20.3544C46.0821 20.3036 46.1072 20.2563 46.1407 20.2152C46.1743 20.174 46.2156 20.1399 46.2623 20.1148C46.309 20.0896 46.3603 20.0739 46.4131 20.0685C46.4659 20.0632 46.5192 20.0682 46.57 20.0835C52.376 21.9259 74.973 21.5389 77.9457 21.4769L78.7198 16.538L47.7545 13.2634C47.7036 13.2583 47.6543 13.2432 47.6093 13.2191C47.5643 13.1949 47.5244 13.1622 47.4921 13.1226C47.4597 13.0831 47.4355 13.0376 47.4207 12.9887C47.406 12.9398 47.401 12.8884 47.4061 12.8376C47.4112 12.7868 47.4262 12.7374 47.4504 12.6924C47.4745 12.6474 47.5073 12.6076 47.5468 12.5752C47.5864 12.5429 47.6319 12.5186 47.6808 12.5039C47.7297 12.4891 47.781 12.4842 47.8319 12.4892L79.2076 15.8103C79.3122 15.8253 79.4068 15.8809 79.4708 15.9651C79.5029 16.0064 79.5263 16.0537 79.5396 16.1043C79.5529 16.1548 79.5558 16.2076 79.5482 16.2593L78.6502 21.9182C78.6355 22.0085 78.5894 22.0906 78.52 22.1502C78.4506 22.2097 78.3623 22.2427 78.2709 22.2433C77.907 22.2666 74.4002 22.3672 69.7863 22.3672Z" fill="#231F20"/>
</svg>
