<svg width="44" height="142" viewBox="0 0 44 142" fill="none" xmlns="http://www.w3.org/2000/svg">
<path d="M7.98693 76.4192C8.29574 76.0187 8.51287 75.5554 8.62307 75.0619C8.73326 74.5685 8.73384 74.0569 8.62473 73.5632C8.51562 73.0695 8.2995 72.6057 7.99157 72.2045C7.68365 71.8033 7.2914 71.4744 6.84249 71.241L7.52657 63.3674L2.83809 61.7852L2.02814 72.9176C1.68586 73.697 1.64159 74.5748 1.90371 75.3846C2.16584 76.1944 2.71615 76.8801 3.45041 77.3117C4.18467 77.7433 5.05189 77.8909 5.88776 77.7265C6.72364 77.562 7.47013 77.0971 7.98583 76.4196L7.98693 76.4192Z" fill="#D4C2A8"/>
<path d="M31.3785 137.634H27.16L25.1528 121.369H31.3819L31.3785 137.634Z" fill="#D4C2A8"/>
<path d="M24.1453 136.429H32.2848V141.549H19.0205C19.0205 140.191 19.5604 138.889 20.5215 137.928C21.4826 136.968 22.7861 136.429 24.1453 136.429Z" fill="#4B1979"/>
<path d="M21.8006 126.842L17.7028 127.848L11.8677 112.533L17.9166 111.048L21.8006 126.842Z" fill="#D4C2A8"/>
<path d="M14.5446 127.251L22.448 125.307L23.6729 130.279L10.7932 133.446C10.4684 132.128 10.6811 130.734 11.3846 129.572C12.0881 128.411 13.2248 127.575 14.5446 127.251Z" fill="#4B1979"/>
<path d="M26.4408 132.447C26.0553 132.448 25.6832 132.306 25.3967 132.049C25.1102 131.791 24.9297 131.436 24.8902 131.053L20.0349 85.8544L15.809 99.6763L21.7944 121.265C21.8974 121.635 21.8599 122.03 21.6892 122.374C21.5186 122.718 21.2267 122.987 20.8696 123.129L16.111 125.031C15.915 125.109 15.7053 125.147 15.4943 125.142C15.2834 125.137 15.0757 125.089 14.8836 125.002C14.6916 124.915 14.5193 124.789 14.3772 124.633C14.235 124.478 14.1259 124.295 14.0565 124.096L6.72147 103.07C5.91843 100.774 5.56315 98.3459 5.67486 95.9166L6.69858 73.2256L33.664 74.3663L33.2431 130.506C33.2381 130.897 33.0873 131.272 32.8202 131.558C32.5531 131.843 32.1889 132.019 31.7989 132.05L26.5622 132.445C26.5214 132.446 26.4809 132.447 26.4408 132.447Z" fill="#4B1979"/>
<path d="M21.9749 23.0088C26.9826 23.0088 31.0422 18.9532 31.0422 13.9502C31.0422 8.94728 26.9826 4.8916 21.9749 4.8916C16.9672 4.8916 12.9077 8.94728 12.9077 13.9502C12.9077 18.9532 16.9672 23.0088 21.9749 23.0088Z" fill="#D4C2A8"/>
<path d="M28.643 75.8428C26.2552 75.8428 23.29 75.6477 20.2196 75.4459C16.0258 75.1701 11.6895 74.885 8.45228 75.0723C8.01515 75.1157 7.57419 75.0464 7.17144 74.8712C6.7687 74.696 6.41759 74.4206 6.1516 74.0714C2.81466 69.8026 7.96054 53.1562 8.18205 52.4499L12.3699 33.8363L12.5501 33.8768L12.3699 33.8363C13.2929 29.7423 16.2355 26.7224 20.0535 25.9553C23.6271 25.2383 27.0836 26.6675 29.3005 29.7818C29.4182 29.947 29.5357 30.1166 29.6531 30.2904C36.8711 40.9704 32.7884 67.5045 32.5149 69.2155C32.8962 69.6717 34.9581 72.2516 34.3914 74.0437C34.1606 74.7729 33.5345 75.2697 32.53 75.519C31.2502 75.7722 29.946 75.8805 28.6419 75.8417L28.643 75.8428Z" fill="#A06ECE"/>
<path d="M8.5987 75.8506C7.7773 75.8506 6.66943 75.5478 5.17576 74.9285C4.53377 74.6615 2.58011 73.8498 4.95203 53.1415C6.11714 42.9695 7.78616 32.8682 7.80277 32.7675L7.81865 32.6701L7.90872 32.6295C7.95154 32.61 12.214 30.6582 12.9553 28.1498C12.9799 28.063 13.0087 27.9788 13.0417 27.8972C13.2456 27.3396 13.6573 26.8823 14.1906 26.6206C14.724 26.3589 15.3379 26.3131 15.9042 26.4927C16.5025 26.6356 17.024 27.0005 17.3628 27.5134C17.7016 28.0263 17.8324 28.6487 17.7287 29.2545C17.4706 30.8905 16.9742 32.48 16.2553 33.9724C14.2496 38.1069 12.8907 49.0675 12.8774 49.1778C12.8006 50.1139 10.9806 72.2926 10.6299 73.9755C10.5073 74.5634 10.2821 75.2826 9.62093 75.6315C9.30375 75.7878 8.95296 75.8638 8.59945 75.8528L8.5987 75.8506Z" fill="#4B1979"/>
<path d="M18.5035 75.0009C18.3379 75.0009 18.1769 74.9457 18.0461 74.8441C15.3785 72.8189 19.6956 48.2702 22.2547 39.8002C22.7675 38.1036 23.2238 36.6516 23.6118 35.4828C24.3186 33.3855 24.812 31.2223 25.0844 29.0262C25.2254 27.8364 25.5315 27.157 26.021 26.9486C26.361 26.8037 26.7593 26.9021 27.2097 27.2411C29.575 27.1245 31.8731 28.0894 34.0025 29.1519L35.9192 30.1072L38.07 68.1507C38.0091 70.5787 33.2187 72.2926 31.1296 72.4021C27.7742 72.5781 21.7489 73.1239 19.0946 74.8028C18.9206 74.9237 18.7153 74.9927 18.5035 75.0009Z" fill="#4B1979"/>
<path d="M6.52202 67.8631C6.49027 67.8631 6.45854 67.8631 6.42642 67.8602L2.08201 67.5931C1.86571 67.5799 1.65454 67.5218 1.46194 67.4226C1.26934 67.3234 1.09952 67.1852 0.963293 67.0169C0.827066 66.8485 0.727425 66.6536 0.670687 66.4447C0.613949 66.2358 0.601354 66.0173 0.633734 65.8032L2.59958 52.7916L6.30015 34.5349C6.3913 34.0852 6.57604 33.6597 6.84237 33.2859C7.1087 32.9121 7.45069 32.5984 7.84616 32.3651C8.24164 32.1318 8.68178 31.9841 9.13804 31.9316C9.5943 31.8792 10.0565 31.9231 10.4947 32.0605C11.2438 32.2993 11.8828 32.7978 12.2963 33.4659C12.7098 34.1341 12.8705 34.9279 12.7496 35.7041L9.80951 53.9976L8.06885 66.518C8.01536 66.8904 7.82966 67.2311 7.54563 67.478C7.2616 67.7249 6.89818 67.8616 6.52166 67.8631H6.52202Z" fill="#4B1979"/>
<path d="M21.3629 53.6205C21.6278 53.1897 21.9841 52.8223 22.4066 52.544C22.8291 52.2657 23.3075 52.0833 23.8082 52.0097C24.3089 51.9361 24.8196 51.9731 25.3045 52.118C25.7893 52.2629 26.2364 52.5123 26.6143 52.8486L33.7375 49.4111L36.8843 53.2262L26.7568 57.9394C26.1493 58.5362 25.3437 58.8897 24.4928 58.9328C23.6419 58.9759 22.8047 58.7057 22.1398 58.1734C21.475 57.641 21.0287 56.8835 20.8855 56.0444C20.7423 55.2053 20.9121 54.3428 21.3629 53.6205Z" fill="#D4C2A8"/>
<path d="M31.2584 57.312C30.9077 57.312 30.5672 57.1941 30.2917 56.9773C30.0162 56.7604 29.8218 56.4573 29.7397 56.1167L28.706 51.8199C28.627 51.4968 28.654 51.1568 28.7829 50.8501C28.9118 50.5435 29.1359 50.2862 29.4222 50.1163L35.6612 46.3853L32.4715 34.718C32.1956 33.7189 32.3221 32.6516 32.8241 31.7445C33.326 30.8374 34.1634 30.1626 35.157 29.8647C36.1507 29.5667 37.2216 29.6692 38.1406 30.1502C39.0595 30.6313 39.7535 31.4526 40.0739 32.4384L43.5954 43.1803C44.028 44.4897 44.0314 45.9028 43.6051 47.2143C43.1789 48.5258 42.3451 49.6673 41.225 50.473L32.1729 57.0159C31.9069 57.2083 31.5869 57.312 31.2584 57.312Z" fill="#4B1979"/>
<path d="M25.3082 16.3649C25.3082 16.3649 24.2048 10.2697 21.694 10.998C19.1832 11.7262 12.7215 12.4713 12.7095 9.60079C12.6975 6.73027 18.7919 4.19304 22.385 4.53644C25.978 4.87983 32.0878 5.93042 31.7515 11.3141C31.4822 14.7047 30.4332 17.9876 28.6863 20.9071L25.3082 16.3649Z" fill="#4B1979"/>
</svg>
    