<svg width="24" height="24" viewBox="0 0 24 24" fill="none" xmlns="http://www.w3.org/2000/svg">
    <path d="M15 20H8C7.45 20 6.979 19.804 6.587 19.412C6.195 19.02 5.99934 18.5493 6 18V7H8V18H15V20ZM11.5 6C10.95 6 10.479 5.804 10.087 5.412C9.695 5.02 9.49934 4.54934 9.5 4C9.5 3.45 9.696 2.979 10.088 2.587C10.48 2.195 10.9507 1.99934 11.5 2C12.05 2 12.521 2.196 12.913 2.588C13.305 2.98 13.5007 3.45067 13.5 4C13.5 4.55 13.304 5.021 12.912 5.413C12.52 5.805 12.0493 6.00067 11.5 6ZM16 22V17H11C10.45 17 9.979 16.804 9.587 16.412C9.195 16.02 8.99934 15.5493 9 15V9.5C9 8.8 9.24167 8.20833 9.725 7.725C10.2083 7.24167 10.8 7 11.5 7C12.2 7 12.7917 7.24167 13.275 7.725C13.7583 8.20833 14 8.8 14 9.5V14H16C16.55 14 17.021 14.196 17.413 14.588C17.805 14.98 18.0007 15.4507 18 16V22H16Z" fill="black" fill-opacity="0.6"/>
    </svg>
    