<svg width="20" height="20" viewBox="0 0 20 20" fill="none" xmlns="http://www.w3.org/2000/svg">
    <g clip-path="url(#clip0_11802_979)">
    <path fill-rule="evenodd" clip-rule="evenodd" d="M10 20C15.5228 20 20 15.5228 20 10C20 4.47715 15.5228 0 10 0C4.47715 0 0 4.47715 0 10C0 15.5228 4.47715 20 10 20ZM14.8839 8.88388C15.372 8.39573 15.372 7.60427 14.8839 7.11612C14.3957 6.62796 13.6043 6.62796 13.1161 7.11612L9 11.2322L6.88388 9.11612C6.39573 8.62796 5.60427 8.62796 5.11612 9.11612C4.62796 9.60427 4.62796 10.3957 5.11612 10.8839L8.11612 13.8839C8.60427 14.372 9.39573 14.372 9.88388 13.8839L14.8839 8.88388Z" fill="#73CA5C"/>
    <path fill-rule="evenodd" clip-rule="evenodd" d="M10 20C15.5228 20 20 15.5228 20 10C20 4.47715 15.5228 0 10 0C4.47715 0 0 4.47715 0 10C0 15.5228 4.47715 20 10 20ZM14.8839 8.88388C15.372 8.39573 15.372 7.60427 14.8839 7.11612C14.3957 6.62796 13.6043 6.62796 13.1161 7.11612L9 11.2322L6.88388 9.11612C6.39573 8.62796 5.60427 8.62796 5.11612 9.11612C4.62796 9.60427 4.62796 10.3957 5.11612 10.8839L8.11612 13.8839C8.60427 14.372 9.39573 14.372 9.88388 13.8839L14.8839 8.88388Z" fill="#73CA5C"/>
    </g>
    <defs>
    <clipPath id="clip0_11802_979">
    <rect width="20" height="20" fill="white"/>
    </clipPath>
    </defs>
    </svg>
    