<svg width="20" height="20" viewBox="0 0 20 20" fill="none" xmlns="http://www.w3.org/2000/svg">
<path d="M9.82609 0C6 0 2 2.95652 2 7.82609C2 12.4348 8.95652 19.4783 9.21739 19.7391C9.3913 19.913 9.56522 20 9.82609 20C10.087 20 10.2609 19.913 10.4348 19.7391C10.6957 19.4783 17.6522 12.4348 17.6522 7.82609C17.6522 2.95652 13.6522 0 9.82609 0ZM9.82609 10.4348C8.34783 10.4348 7.21739 9.30435 7.21739 7.82609C7.21739 6.34783 8.34783 5.21739 9.82609 5.21739C11.3043 5.21739 12.4348 6.34783 12.4348 7.82609C12.4348 9.30435 11.3043 10.4348 9.82609 10.4348Z" fill="#8A8A8A"/>
</svg>
